# Blender v2.82 (sub 7) OBJ File: ''
# www.blender.org
mtllib untitled.mtl
o Cube
v -0.012427 -0.239985 -0.344628
v 0.425366 -0.507225 -0.175977
v 0.139298 -0.293545 0.253722
v 0.345974 -0.445080 0.315197
v -0.300051 -0.309914 -0.117674
v -0.409159 -0.509104 -0.323222
v -0.344130 -0.276756 0.203797
v -0.381427 -0.410521 0.418830
v -0.475441 -0.486551 0.091370
v -0.003636 -0.514900 -0.387824
v -0.058338 -0.490988 0.308868
v 0.375855 -0.496692 -0.000615
v -0.066351 -0.528892 -0.010029
v -0.380800 -0.419229 0.212338
v -0.221930 -0.480781 -0.270747
v 0.253677 -0.354856 -0.376601
v -0.405173 -0.363633 0.382560
v -0.392358 -0.416253 -0.248128
v -0.322091 -0.293335 0.043062
v -0.135046 -0.256209 -0.236904
v -0.420397 -0.455602 -0.130312
v 0.190065 -0.514544 -0.212454
v -0.311684 -0.439348 -0.334419
v -0.089357 -0.346151 -0.289377
v -0.252491 -0.279520 -0.061114
v -0.183143 -0.282002 -0.005388
v -0.401972 -0.373702 0.055961
v -0.195363 -0.340588 0.330069
vt 0.875000 0.500000
vt 0.875000 0.625000
vt 0.828487 0.578487
vt 0.508468 0.941734
vt 0.625000 1.000000
vt 0.500000 1.000000
vt 0.375000 0.187500
vt 0.625000 0.250000
vt 0.500000 0.250000
vt 0.375000 0.250000
vt 0.375000 0.625000
vt 0.375000 0.750000
vt 0.250000 0.750000
vt 0.625000 0.750000
vt 0.375000 0.437500
vt 0.500000 0.500000
vt 0.375000 0.500000
vt 0.125000 0.687500
vt 0.125000 0.750000
vt 0.187500 0.500000
vt 0.250000 0.500000
vt 0.250000 0.625000
vt 0.125000 0.625000
vt 0.125000 0.562500
vt 0.312500 0.500000
vt 0.125000 0.500000
vt 0.792469 0.608845
vt 0.875000 0.750000
vt 0.625000 0.500000
vt 0.375000 0.375000
vt 0.538079 0.375000
vt 0.625000 0.375000
vt 0.375000 0.312500
vt 0.456178 0.271911
vt 0.750000 0.500000
vt 0.518613 0.079790
vt 0.625000 0.000000
vt 0.625000 0.125000
vt 0.375000 0.062500
vt 0.375000 0.000000
vt 0.500000 0.000000
vt 0.375000 0.125000
vt 0.375000 0.875000
vt 0.375000 1.000000
vn -0.4013 0.9039 -0.1483
vn 0.0115 0.8978 0.4403
vn -0.8607 0.5078 -0.0352
vn 0.1085 -0.9794 0.1703
vn 0.6037 0.7939 -0.0726
vn 0.1261 -0.7350 -0.6662
vn -0.2285 -0.9727 0.0403
vn -0.1691 -0.9796 -0.1082
vn 0.0208 -0.9976 0.0658
vn 0.0695 -0.9602 0.2704
vn -0.0963 0.9944 -0.0437
vn 0.3945 0.9187 -0.0178
vn 0.5804 0.8061 0.1155
vn 0.6828 0.7287 0.0530
vn 0.4685 -0.7171 -0.5160
vn -0.0524 0.1534 -0.9868
vn -0.6641 0.0953 -0.7416
vn -0.4165 0.2909 -0.8613
vn 0.5493 -0.0873 -0.8311
vn -0.4997 0.5976 -0.6271
vn -0.4614 0.7724 -0.4365
vn 0.3016 -0.5468 -0.7810
vn -0.0436 0.9939 0.1017
vn 0.0346 0.9994 0.0015
vn -0.0451 0.9939 0.1004
vn -0.7125 0.6813 -0.1680
vn -0.9454 0.2555 0.2024
vn -0.9879 0.0315 -0.1517
vn -0.8321 0.5534 0.0374
vn -0.7458 0.6339 -0.2049
vn -0.0176 0.8838 0.4675
vn -0.0506 0.3154 0.9476
vn 0.3824 0.6787 0.6270
vn 0.2341 0.0766 0.9692
vn 0.2143 0.0578 0.9751
vn 0.0697 -0.9908 0.1160
vn 0.0524 -0.9986 -0.0044
vn -0.1470 -0.9537 0.2624
usemtl Material
s off
f 5/1/1 19/2/1 25/3/1
f 28/4/2 7/5/2 17/6/2
f 21/7/3 5/8/3 18/9/3 6/10/3
f 12/11/4 4/12/4 11/13/4
f 12/11/5 3/14/5 4/12/5
f 22/15/6 16/16/6 2/17/6
f 14/18/7 11/13/7 8/19/7
f 15/20/8 10/21/8 13/22/8 9/23/8 21/24/8
f 22/25/9 2/17/9 12/11/9
f 6/26/10 15/20/10 21/24/10
f 26/27/11 25/3/11 19/2/11 7/28/11
f 16/16/12 1/29/12 3/14/12
f 2/17/13 16/16/13 12/11/13
f 12/11/14 16/16/14 3/14/14
f 10/30/15 16/16/15 22/15/15
f 10/30/16 1/29/16 16/16/16
f 24/31/17 20/32/17 1/29/17
f 15/33/18 20/32/18 24/31/18
f 23/34/19 20/32/19 15/33/19
f 6/10/20 18/9/20 23/34/20
f 18/9/21 5/8/21 20/32/21 23/34/21
f 15/33/22 6/10/22 23/34/22
f 10/30/18 15/33/18 24/31/18
f 10/30/17 24/31/17 1/29/17
f 20/35/1 5/1/1 25/3/1
f 1/29/23 20/35/23 25/3/23 26/27/23
f 3/14/24 26/27/24 7/28/24
f 3/14/25 1/29/25 26/27/25
f 27/36/26 7/37/26 19/38/26 5/8/26
f 14/39/27 7/37/27 27/36/27
f 8/40/28 17/41/28 7/37/28 14/39/28
f 9/42/29 14/39/29 27/36/29 21/7/29
f 21/7/30 27/36/30 5/8/30
f 3/14/31 7/5/31 28/4/31
f 4/12/32 3/14/32 11/43/32
f 8/44/33 11/43/33 17/6/33
f 11/43/34 28/4/34 17/6/34
f 11/43/35 3/14/35 28/4/35
f 13/22/36 12/11/36 11/13/36
f 10/21/37 22/25/37 12/11/37 13/22/37
f 9/23/38 13/22/38 11/13/38 14/18/38
